<?xml version="1.0" encoding="UTF-8"?>
<svg id="Layer_1" data-name="Layer 1" xmlns="http://www.w3.org/2000/svg" viewBox="0 0 326.87 225.73">
  <defs>
    <style>
      .cls-1 {
        fill: #6b0127;
      }
    </style>
  </defs>
  <path class="cls-1" d="M254.84,112.48v3.13c.74.26,1.48.57,2.13.87,12.22,5.44,13.31,14.75,13.31,36.41v48.24c-4.61,1.57-9.31,2.74-14.09,3.48-3.83.61-7.74.91-11.7.91-8.44,0-17.01-1.39-25.36-4.39-27.62-9.74-52.63-36.84-61.5-88.34-13.05-67.38,11.87-101.22,46.24-101.22,6.7,0,13.7,1.26,20.88,3.87,10.61,3.7,21.53,10.27,32.14,19.57,10.7-9.35,21.7-15.88,32.4-19.57-10.13-4.78-20.97-8.53-32.06-11.14-11.92-2.78-24.18-4.31-36.19-4.31-54.24,0-104.31,31.01-104.31,112.79,0,73.29,58.37,112.13,104.31,112.13,10.44,0,22.88-1.13,35.32-4.44,13.05-3.44,26.19-9.31,37.23-18.83,6.83-5.87,12.88-13.18,17.57-22.14v-26.62c0-22.88,1.17-31.97,15.7-37.28v-3.13h-72.03Z"/>
  <path class="cls-1" d="M105.83.77c-11.7,0-23.58,1.44-35.23,4.13-11.22,2.57-22.23,6.31-32.49,11.14,10.61,3.7,21.53,10.27,32.14,19.57,10.7-9.35,21.7-15.88,32.4-19.57,7-2.44,13.83-3.65,20.36-3.65,34.36,0,59.29,33.84,46.24,101.17-8.96,52.02-34.36,79.12-62.29,88.69-8.09,2.74-16.4,4.05-24.58,4.05-4.35,0-8.61-.39-12.83-1.09-4.39-.74-8.74-1.87-12.96-3.31v-48.24c0-21.92,1.13-31.14,13.74-36.58.57-.26,1.09-.48,1.7-.7v-3.13H0v3.13c14.53,5.35,15.7,14.4,15.7,37.28v26.62c4.52,8.61,10.27,15.7,16.79,21.44,10.96,9.74,24.14,15.79,37.23,19.36,12.74,3.48,25.45,4.65,36.1,4.65,45.93,0,104.31-38.84,104.31-112.18C210.13,31.82,160.07.77,105.83.77Z"/>
  <ellipse class="cls-1" cx="37.31" cy="78.74" rx="28.14" ry="26.96"/>
  <ellipse class="cls-1" cx="290.31" cy="76.96" rx="28.14" ry="26.96"/>
</svg>